<svg class="logo" xmlns="http://www.w3.org/2000/svg" fill-rule="evenodd" stroke-linecap="round" stroke-linejoin="round" stroke-miterlimit="1.5" clip-rule="evenodd" viewBox="0 0 128 128">
  <defs/>
  <g id="left-eye" fill-opacity="0" stroke="#1c1c17" stroke-width="4">
    <ellipse cx="55.6" cy="80.6" fill="#1b1c17" rx="1.7" ry="5.3"/>
    <ellipse cx="54.6" cy="81.3" rx="5.3" ry="12.2"/>
  </g>
  <g id="right-eye" fill-opacity="0" stroke="#1c1c17" stroke-width="4">
    <ellipse cx="76.6" cy="73.6" fill="#1b1c17" rx="1.7" ry="5.3"/>
    <ellipse cx="75.1" cy="74.3" rx="5.3" ry="12.2"/>
  </g>
  <path id="mouth" fill="#1c1c17" d="M75.2 98.4h.5l.1.1h.2v.2h.2l.1.1.1.1.2.1v.1l.1.1.1.1v.2h.1v.2h.1v.4h.1v1.6l-.1.1V102.1l-.1.1V102.5l-.1.2v.1l-.1.2v.1l-.1.1V103.5l-.1.1v.2l-.2.2v.4l-.1.2-.1.1v.2l-.1.2v.1l-.1.2v.2l-.2.1v.4l-.1.1-.1.2v.2l-.1.1-.1.2v.1l-.1.2-.1.2v.1l-.1.2v.1h.4l.1.1H75.8l.2.1h.2l.2.1h.2l.4.1h.2l.2.1h.2l.1.1h.5v.1H78.9v.1H80.7v-.1h.2v-.1h.2v-.1h.2v-.1h.1l.1-.1.1-.1h.1v-.1h.1l.1-.1h.1v-.1h.1v-.1h.1v-.1h.1l.1-.1.1-.1.1-.1v-.1h.1v-.1h.1l.1-.1.1-.1v-.1h.1v-.1h.1v-.2h.2v-.1l.1-.1.1-.1v-.1h.1v-.1l.1-.1.1-.1.1-.1.1-.1.1-.2.1-.1.1-.2.1-.1.1-.1.1-.2.1-.1.1-.2.1-.1.1-.1.1-.2v-.1l.2-.2.2-.2v-.2h.1l.1-.2v-.1l.2-.3.2-.2.1-.3h.1l.1-.2.1-.1.1-.1.1-.1h.2l.1-.2H87.4l.1-.1H87.8l.2-.1H88.6l.1.1h.1l.2.1.1.1h.1l.1.2h.1l.2.2v.1l.1.1.1.2v.1l.1.1v.2l.1.1v1.1h-.1v.2l-.2.2-.1.2-.2.2-.1.3-.1.1-.1.2-.1.1v.2l-.2.1v.2l-.2.1v.2l-.2.1v.2l-.2.1-.1.2-.1.1-.1.2-.1.1-.2.2v.2l-.2.1-.1.2-.1.2H87v.1H87l-.1.2-.1.1-.1.1-.1.2h-.1v.1l-.1.1h-.1v.2h-.1l-.1.1v.1h-.2v.2h-.1v.1h-.2v.2h-.1v.1h-.2v.2h-.1v.1H85v.1l-.1.1h-.1v.2h-.2l-.1.2h-.1l-.2.2H84l-.1.1-.1.1h-.1l-.1.1-.2.2h-.2v.1H83v.1H83l-.1.1h-.1l-.1.1h-.1l-.1.1h-.1l-.1.1H82l-.2.1h-.2v.1H81.3l-.1.1h-.4l-.1.1H78l-.1-.1h-.5v-.1H77l-.3-.1h-.2l-.2-.1h-.2l-.4-.1h-.2l-.1-.1h-.2l-.2-.1h-.4v-.1H74l-.1-.1h-.4l-.1-.1H73l-.1.2-.1.1-.1.2-.1.1-.1.2-.1.2-.1.1-.1.2-.1.1-.1.2-.1.1-.1.2-.1.1-.1.2-.1.1-.1.1-.1.2-.1.1-.1.2-.2.1-.2.4-.1.1-.2.2-.1.2-.1.2H70l-.1.2-.2.2-.1.2h-.1v.2h-.2v.2h-.1l-.1.2H69l-.1.2h-.1l-.1.2h-.1l-.1.2h-.1l-.1.2h-.1l-.1.1v.1H68l-.1.1-.1.1-.1.1h-.1v.1h-.1v.1h-.1l-.2.1v.1h-.1l-.1.1H67v.1h-.2v.1h-.1l-.1.1h-.2v.1h-.2v.1H66l-.2.1h-.1v.1H65.4v.1H65l-.1.1h-1v.1h-1.3v-.1h-.4l-.1-.1H61.9v-.1H61.5l-.1-.1h-.2v-.1H61v-.1h-.1l-.1-.1h-.1v-.1h-.2v-.1h-.1l-.2-.1-.2-.2H59.3l-.2-.1H59l-.2-.1-.2-.1-.1-.1-.2-.1v-.1l-.2-.1v-.1l-.2-.2-.1-.2v-.2l-.1-.1V115.6l.1-.1.1-.1v-.2l.2-.1v-.1l.2-.1.1-.1.1-.1.2-.1.2-.1h.1l.1-.1h.4l.1-.1H60.5v.1H60.9v.1h.2l.1.1h.1l.2.1.1.1h.1l.1.1.2.1.1.1h.2l.1.2h.2v.1h.2v.1H63v.1h.7v.1h.7v-.1h.2l.1-.1h.1v-.1h.1l.1-.1h.1v-.1h.1v-.1h.1l.1-.1.1-.1.1-.1.1-.1.1-.1.1-.1.2-.2v-.1h.2v-.2h.1v-.1l.1-.1h.1v-.2h.1l.1-.1v-.1l.1-.1h.1v-.2h.1l.2-.2v-.2l.2-.1.2-.4.1-.1.2-.2.1-.2.1-.1.1-.2.1-.1.1-.1.1-.2.2-.2v-.1l.2-.2v-.1l.1-.1.1-.2-.2-.2-.3-.2-.4-.2H68l-.2-.1-.2-.1-.1-.1h-.2v-.1H67l-.1-.1H66.7l-.1-.1h-.2v-.1h-.2l-.1-.1h-.2v-.1h-.2l-.1-.1-.2-.1v-.1h-.1l-.1-.2H65l-.1-.1v-.1h-.1v-.1l-.1-.1-.1-.2v-.1l-.1-.1v-.2l-.1-.2V105.6h.1v-.2l.1-.1v-.2h.1v-.2h.1v-.1h.1v-.1l.1-.1.1-.1v-.1h.1v-.1h.1v-.1l.1-.1.1-.1.1-.1.1-.1h.1v-.1h.1v-.1h.1v-.1h.1l.2-.1v-.1h.1v-.1h.2v-.1h.1v-.1h.2l.1-.1.1-.1h.1l.2-.2h.2l.1-.1.1-.1h.2v-.1h.2l.1-.1h.1l.1-.1h.2v-.1h.2v-.1l.3-.1.2-.1.2-.1.2-.1h.2l.2-.2h.2v-.1h.2l.1-.1h.1v-.1h.2v-.2h.2l.1-.1.1-.1.3-.2.3-.3.2-.2.3-.2.3-.2.5-.4.2-.2h.1v-.1l.2-.1.1-.1h.1l.1-.1h.1l.2-.1H74.8l.1-.1H75.2zm-13.6 18.2v-.1.1zm9.9-11.3h-.2l-.2.1-.2.1-.2.1-.2.1h-.2v.1H70v.1l.3.2.4.2.2.1h.1l.1-.1v-.2l.2-.1V105.7l.1-.2v-.1l.2-.2h-.2z"/>
  <g id="whiskers" fill="#1c1c17">
    <path d="M51.2 112.5h.7v.1h.2l.1.1.1.1h.1v.1h.1l.1.1v.1h.1v.1l.1.1.1.1v.1l.1.2v.1l.1.1V115.3H53v.2l-.1.1-.1.1v.1h-.1v.1l-.1.1h-.1v.1h-.1l-.1.1-.2.1-.2.1-.2.1h-.1l-.2.2h-.1l-.2.1-.1.1-.2.1h-.1l-.2.2h-.1l-.2.1-.1.1-.2.1-.1.1h-.1l-.2.2h-.1l-.1.2H49l-.1.1-.1.1-.2.1-.1.1-.1.1h-.2v.2H48l-.1.2h-.2v.2h-.2l-.1.2h-.1l-.2.2-.2.2h-.1l-.1.2-.2.1v.1l-.2.1-.1.1-.1.2H46l-.2.2v.1l-.2.1-.1.1-.1.2h-.2v.2l-.2.1-.1.2-.1.1-.2.1v.2l-.2.1-.1.1-.1.2-.2.1v.2l-.2.1-.1.2h-.1l-.1.1v.1h-.1l-.1.1-.1.1h-.1l-.2.1h-.1l-.1.1H41.4v-.1h-.2l-.1-.1-.1-.1H41v-.1h-.1l-.1-.1-.1-.2h-.1v-.2h-.1v-.1l-.1-.2v-.1l-.1-.2V121l.1-.1v-.2h.1v-.1h.1v-.1l.1-.1.1-.2.2-.1.1-.2.1-.1.2-.2.1-.1.1-.2.2-.1.1-.2.1-.1.2-.2.1-.1.1-.2.2-.1.1-.1.1-.2.2-.1.1-.2h.2v-.2l.2-.2h.2l.1-.2.1-.1.2-.2.1-.1.2-.1.1-.1.1-.2h.2l.1-.2.2-.1.1-.1.2-.2h.1l.2-.2.1-.1.2-.1.1-.1.2-.1.1-.1.2-.2h.1l.2-.2h.1l.2-.2h.2l.1-.2h.2l.1-.2h.2l.2-.2h.1l.2-.2h.2l.2-.2h.1l.2-.2h.2l.2-.2h.1l.2-.2h.2l.2-.1.1-.1H50.7v-.1h.5z"/>
    <path d="M50.8 107h.7l.2.1.2.2h.2v.2h.1l.1.1v.1l.1.1.1.1v.1l.1.1V108.4h.1V109.8l-.1.1v.1l-.2.1v.2l-.2.1-.1.2H52l-.1.1h-.1l-.1.1h-.1l-.1.1H51v.1H45l-.2.1h-1.5l-.2.1h-1l-.2.1H41.4l-.2.1h-.4l-.3.1H40v.1h-.4l-.2.1h-.4v.1h-.4l-.2.1H38l-.2.1h-.2l-.2.1h-.2l-.1.1h-.4v.1h-.2l-.2.1h-.1l-.2.1h-.2v.1H35.5v.1h-.2v.1h-.2v.2H35l-.1.2-.2.1v.1h-.2v.1l-.1.1h-.2l-.2.1-.2.1H33l-.1-.1h-.1l-.1-.1h-.1l-.1-.1h-.1l-.1-.2H32v-.1l-.2-.1v-.1l-.1-.1v-.1l-.1-.1v-.1l-.1-.1v-.5l-.1-.1V111.2l.1-.2v-.2h.1v-.2h.1v-.1l.1-.1.1-.2h.1v-.1h.1v-.1h.1v-.1h.1v-.1h.1v-.1h.1l.1-.1h.1v-.1h.1l.1-.1h.1l.1-.1.2-.1h.2v-.1h.1l.1-.1h.1l.2-.1h.1l.1-.1h.2v-.1H34.9l.1-.1h.2l.1-.1H35.5l.1-.1h.2l.2-.1h.2v-.1h.4l.1-.1h.2l.2-.1H37.4l.1-.1h.4l.1-.1h.4v-.1h.5l.1-.1h.5l.2-.1h.5l.2-.1h.5l.2-.1h.7l.2-.1H43l.3-.1h1.6l.2-.1H50.8zm-15.3 4.9v-.1z"/>
    <path d="M114.1 90.4h.5l.1.1h.1l.1.1h.1l.1.1.1.1h.1l.1.2h.1v.1l.1.1.1.1v.1l.1.1v.2h.1v.4l.1.1v.8h-.1v.2l-.1.1v.1l-.1.1-.1.1v.1h-.2v.2h-.2v.1h-.2v.1l-.2.1h-.2l-.1.1h-1.2l-.1.1H112l-.2.1h-.7l-.3.1h-.5l-.2.1h-.6l-.5.2h-.8l-.3.1h-.5l-.3.1h-.5l-.2.1h-.7l-.3.1h-1l-.6.1h-.7l-.3.1H102l-.2.1h-.8l-.1.1h-.8l-.1.1h-.5l-.1.1h-.5l-.1.1h-.5l-.1.1H97.8l-.1.1H97.4l-.2.1H97l-.1.1h-.1l-.2.1h-.1l-.2.1H96v.1H94.5l-.2-.1-.2-.1v-.1l-.2-.1-.2-.2-.1-.2-.1-.2-.1-.2-.1-.2V94l.1-.1.1-.1v-.1l.1-.1.1-.1v-.1h.2v-.2h.2V93h.2V93h.2l.1-.1h.2l.1-.1h.2l.2-.1h.2l.1-.1h.2l.2-.1h.1l.2-.1h.4l.1-.1h.2l.2-.1H97.6l.2-.1h.5l.2-.1H98.8l.2-.1h.7l.1-.1h.7l.2-.1h.6l.2-.1h1l.3-.1h.7l.6-.1h1l.3-.1H106.1l.2-.1H107l.3-.1h.5l.2-.1h.5l.6-.2h.8l.2-.1h.6l.1-.1H111.6l.1-.1H112.8l.2-.1H114z"/>
    <path d="M103.6 78.2h.4l.1.1h.2v.1h.2v.1h.1l.1.1.2.1v.1h.1v.1l.1.1v.1h.1v.2h.1v.2l.1.1V80l.1.1v.7l-.1.2v.1l-.1.1v.1h-.1v.2h-.1v.1h-.2v.2h-.1l-.2.1v.1h-.1l-.1.1h-.1l-.1.1h-.1l-.1.1h-.1l-.1.1h-.1l-.1.2h-.2v.1h-.2v.2h-.2l-.2.1v.1h-.2v.1l-.2.1-.2.1-.2.2h-.1l-.1.2h-.1l-.1.1h-.1l-.1.1-.1.1h-.1l-.1.2h-.1l-.1.1h-.1l-.1.1-.1.1-.2.2-.2.1-.2.2-.2.1-.1.2h-.1l-.1.1-.1.1h-.1l-.1.2H99v.1l-.2.1-.2.2-.1.1-.1.1h-.1l-.1.2h-.1l-.1.1v.1l-.2.1-.2.2-.1.1-.1.1-.1.1-.2.2-.1.2H97l-.1.1-.1.1v.1h-.2v.2h-.1l-.1.1-.1.1v.1l-.2.1v.1H96l-.1.2-.2.2-.1.1v.1l-.2.1v.1h-.1l-.1.2-.1.2H95l-.1.1v.1l-.1.1-.1.1v.1l-.2.1-.1.2-.1.2h-.1v.1l-.1.1-.1.1v.1l-.1.1-.1.1v.1h-.1l-.1.2-.1.2-.1.1-.1.1-.1.2H93l-.1.1-.1.1h-.1v.1h-.2l-.2.1h-.1l-.1.1H91l-.2-.1-.1-.1h-.1l-.1-.1-.2-.1v-.1l-.2-.1V92H90v-.2H90v-.1l-.1-.1V91.4h-.1v-1.1l.1-.1V90h.1v-.2h.2v-.2h.1v-.2l.2-.1v-.1l.1-.1V89l.2-.1v-.1l.1-.1v-.1l.2-.1v-.1l.1-.1.1-.2.2-.2.1-.2h.1v-.2h.2v-.2h.1l.1-.2h.1l.1-.2.2-.2.2-.2.1-.2h.1l.1-.2h.1v-.2h.2v-.2h.2v-.2h.1l.1-.2h.1l.1-.2h.1l.1-.2h.1l.1-.2h.1l.1-.1v-.1l.2-.1v-.1l.2-.1V84l.2-.1v-.1l.2-.1.2-.2.2-.2.2-.2.2-.1V83l.2-.1v-.1h.2v-.2h.2l.1-.2h.1l.1-.1.1-.1.1-.1h.1l.1-.2h.1l.1-.1.1-.1.1-.1h.1l.2-.2.2-.1v-.1l.2-.1.2-.2h.1l.1-.1h.1l.1-.2h.1l.1-.1.2-.1.2-.2.2-.1.2-.2h.1l.1-.1h.1l.1-.1.2-.1.2-.2.2-.1h.1l.1-.1.1-.1h.1l.1-.1.2-.1.2-.1v-.1h.2l.1-.1h.1l.1-.1h.1l.1-.1.2-.1h.4v-.1H103.7z"/>
  </g>
  <path id="ear-right" fill="#1c1c17" d="M93 10.2h1.2l.2.1h1v.1h.8v.1H96.9l.1.1h.5l.1.1H97.8l.1.1h.4l.1.1H98.7l.1.1h.4v.1h.2l.2.1h.2l.2.1h.2v.1h.2l.2.1h.2l.1.1h.2l.1.1h.1l.2.1h.2l.1.1.2.1h.1l.2.1h.2l.1.2h.2l.2.1h.1l.2.1.1.1h.2l.2.2h.1l.2.1.1.1h.2l.1.2h.2l.1.1.2.1h.1l.2.2h.1l.2.1.1.1.2.1.1.1.2.1h.1l.2.2h.1l.2.2h.1l.2.2h.1l.2.1.1.1.1.1.2.1.1.1.2.1.1.1.1.1.2.1.1.1.2.1.1.1.1.1.2.1.1.1.1.1.2.1.1.1.1.2h.2l.1.2h.1l.2.2.2.2.2.1.1.1.2.2.2.2.2.1.1.2h.1l.1.1v.1h.2v.2h.1l.1.1.1.1h.1v.2h.2v.1l.1.1.1.1h.1v.2h.2v.1l.1.1.1.1h.1v.2h.2v.1l.1.1.1.1v.1l.2.1.1.2h.1v.2h.2v.1l.1.1.1.1v.1h.2v.2h.1v.2h.2v.2h.1v.1l.2.1v.1l.1.1v.1l.2.1v.1l.1.1v.1l.1.1h.1v.2h.2v.2l.2.2.1.2.1.2h.1v.2h.1l.1.2.1.2.2.2v.2h.1l.1.2v.1l.1.1v.1l.2.1v.2l.1.1v.1l.1.1.1.1v.2h.1v.2h.1v.2h.1v.2l.1.1v.1l.1.1.1.1v.1l.1.2.1.2v.2l.1.1v.1l.1.1v.1l.1.2.1.2v.1l.1.1v.2l.1.2.1.2v.1l.1.2v.2l.1.2v.2h.1v.4l.1.1v.4h.1v.4l.1.2V34.7l-.1.2v.1l-.1.1V35.3h-.1v.1l-.1.2v.1h-.1v.2h-.1v.1l-.1.1v.1h-.1v.2h-.2v.2h-.1l-.1.1-.1.1-.1.1h-.1v.1l-.2.1-.1.1-.2.1-.1.1-.2.1h-.1l-.1.1h-.2v.1h-.2l-.1.1h-.2l-.2.1H116.3v.1h-.7v.1h-2.1l-.1-.1h-.4l-.2-.1h-.2l-.2-.1h-.4v-.1h-.2l-.2-.1h-.2l-.2-.1h-.2l-.1-.1-.4-.1h-.1l-.2-.1h-.2l-.2-.1-.2-.1h-.2l-.2-.1h-.2l-.2-.1-.2-.1h-.2l-.1-.1-.2-.1h-.2l-.2-.1h-.2l-.4-.2-.3-.2h-.4l-.4-.2-.7-.3-.4-.1-.3-.1-.4-.2-.3-.1-.4-.1h-.2l-.2-.1-.1-.1h-.2l-.2-.1h-.2l-.1-.1-.2-.1h-.2l-.2-.1h-.2l-.1-.1h-.2l-.2-.1h-.2l-.1-.1h-.2l-.2-.1h-.2l-.1-.1h-.2l-.2-.1h-.2l-.2-.1H99l-.2-.1h-.2l-.2-.1H98l-.2-.1h-.4v-.1H97l-.1-.1H96.3L96 33H95.3l-.1-.1H91.6l-.2.1H91l-.2.1h-.2l-.1.1H90.2l-.1.1h-.2l-.2.1h-.1l-.1.1h-.2v.1H89l-.1.1h-.2v.1h-.1l-.1.1h-.2v.1h-.1v.1H88l-.1.1-.2.1-.1.1-.1.1h-.1l-.2.1-.1.1-.1.1H87v.1l-.1.1h-.1v.1h-.1l-.1.1-.1.1-.2.1v.1l-.1.1H86v.1l-.1.1-.1.1h-.1v.2h-.1l-.1.1-.1.1-.1.1v.1h-.1v.1l-.1.1H85v.2H85v.1h-.1v.1l-.1.1-.1.2-.1.1-.1.2-.1.1-.1.2-.1.1v.1H84v.2H84v.1l-.1.1-.1.2-.1.1v.2h-.1v.2h-.1v.2h-.1v.2l-.1.1-.1.2v.2H83v.1l-.1.1v.2l-.1.1-.1.2v.2h-.1v.2l-.1.1v.2l-.1.1v.2l-.1.1v.2l-.1.1v.2h-.1v.2l-.1.2v.2H82v.2l-.1.3v.2l-.1.2v.2l-.1.2v.2l-.1.2v.2l-.1.2v.2l-.1.2v.2l-.1.2v.2l-.1.2v.4l-.1.3v.4l-.1.2v.4l-.1.2v.4l-.1.2v.4l-.1.2V50.1l-.1.3v.8l-.1.2v.8l-.1.2v.2l-.1.1-.1.2-.1.2-.2.2v.1l-.2.1-.2.2h-.2l-.2.1-.2.1h-1.2l-.1-.1-.2-.1-.2-.1-.1-.2-.2-.1-.1-.2-.1-.1-.1-.2v-.2l-.1-.2v-2.1l.1-.2V49.5l.1-.3V48.6l.1-.2v-.5l.1-.2v-.5l.1-.2v-.2l.1-.2V46l.1-.2v-.2l.1-.3v-.2l.1-.2v-.2l.1-.3v-.2l.1-.2v-.3l.1-.2v-.2l.1-.2.1-.3v-.2l.1-.2.1-.2V42h.1V41.6l.1-.1v-.2l.1-.1V41l.1-.2.1-.2v-.2l.1-.1V40h.1v-.2h.1v-.2l.1-.1v-.2l.1-.1v-.1l.1-.1v-.2h.1v-.2h.1v-.2h.1v-.2l.1-.1v-.1l.1-.1v-.1l.1-.1v-.1l.1-.1v-.1l.1-.1v-.1l.1-.2.1-.2.1-.2h.1v-.2h.1v-.2h.1l.1-.2.1-.2.1-.2h.1v-.2h.1l.1-.2.1-.1.1-.1V35l.1-.1.1-.1v-.1l.2-.1v-.2h.2v-.2h.1V34h.2v-.1l.1-.1v-.1l.2-.1v-.1h.1l.1-.2.2-.1V33l.1-.1.1-.1h.1v-.2h.2v-.1l.1-.1h.1l.1-.2h.1l.1-.1V32h.2v-.2h.2v-.1h.2v-.1l.1-.1h.1l.1-.2h.1l.1-.1h.1l.1-.1.1-.1h.1l.1-.1.1-.1h.2v-.1h.2v-.1l.2-.1.2-.1h.1l.1-.1h.1l.1-.1.1-.1h.2V30h.2l.1-.1h.1l.1-.1h.2l.2-.1h.1l.1-.1h.2v-.1H88.9l.1-.1h.2v-.1H89.5l.2-.1h.4v-.1h.4V29H91l.2-.1h.6l.2-.1H96.4l.1.1h.6l.2.1h.4l.2.1h.4l.2.1h.2l.2.1h.3l.2.1h.2l.3.1h.2l.2.1h.2l.2.1h.2l.2.1h.2l.2.1h.2l.2.1h.2l.2.1h.1l.2.2h.4l.2.1h.2l.2.2h.4l.2.1.2.1h.1l.2.1.2.1.4.1.4.2h.3l.4.2.4.2.7.2.3.1.4.2.4.1.3.1h.2l.2.2H109.6l.2.1.2.1h.2l.2.1h.1l.2.1h.2l.2.1.1.1h.2l.2.1h.2l.3.1h.1l.2.1h.2l.1.1h.2l.1.1H113.3l.1.1h.4v.1h.6l.1.1h1.3V34h.2v-.1l.1-.1V32l-.1-.2V31.5l-.1-.1v-.2h-.1V30.8l-.1-.1v-.2l-.1-.1v-.2h-.1V30l-.1-.2-.1-.1v-.2l-.1-.1v-.1l-.1-.1V29h-.1v-.2h-.1v-.1l-.1-.1v-.2l-.1-.1v-.1h-.1V28h-.1v-.2h-.1v-.1l-.1-.1v-.1l-.1-.1-.1-.2-.1-.2-.1-.1v-.1l-.1-.1-.1-.2h-.1v-.1l-.1-.1v-.1l-.1-.1-.1-.2h-.1v-.1l-.1-.1v-.1l-.1-.1h-.1v-.2h-.1v-.1l-.1-.1-.1-.1-.1-.2-.2-.1v-.1l-.1-.2h-.1v-.1l-.1-.1h-.1V24h-.1l-.1-.1v-.1h-.1l-.1-.2-.1-.1-.1-.1-.1-.2h-.1v-.1h-.2V23h-.1v-.1l-.1-.1h-.1v-.1l-.2-.1v-.1h-.1v-.1l-.1-.1h-.1V22h-.2V22h-.1v-.2h-.2v-.1h-.1v-.1l-.2-.1-.1-.2h-.2V21h-.1l-.1-.1-.2-.1-.1-.2-.2-.1-.1-.1-.1-.1-.2-.1v-.1l-.2-.1-.1-.1-.1-.1-.2-.1v-.1l-.2-.1-.1-.1h-.1l-.2-.2-.2-.2h-.1l-.1-.1-.2-.1v-.1l-.2-.1-.1-.1h-.2v-.2h-.2l-.1-.1-.2-.1V18l-.2-.1h-.1l-.2-.2h-.1l-.1-.1-.2-.1-.2-.2h-.1l-.2-.1h-.1l-.1-.2h-.2V17h-.2l-.2-.2-.2-.1h-.2v-.1l-.2-.1h-.1l-.2-.1h-.1l-.1-.2H101.5l-.2-.1-.2-.2h-.2l-.2-.1h-.2l-.1-.1h-.1l-.2-.1h-.1v-.1h-.4v-.1h-.2l-.1-.1H99v-.1h-.2l-.1-.1H98.4l-.2-.1H98l-.1-.1h-.4v-.1H97l-.1-.1h-.4l-.1-.1H96l-.1-.1h-.7l-.1-.1h-.8l-.1-.1H90.3l-.2.1h-.5l-.1.1H89l-.1.1h-.4l-.1.1H88l-.2.1h-.2l-.1.1H87.3l-.2.1H87l-.2.1h-.1l-.2.1h-.1l-.2.1h-.1l-.2.1h-.2l-.1.1h-.2l-.1.1h-.2l-.1.1-.2.1h-.1l-.2.1h-.1l-.1.2H84l-.2.2h-.1l-.2.1h-.1l-.2.1-.1.1h-.2l-.1.2h-.1l-.2.1-.1.1h-.2l-.1.2H82l-.2.1-.1.1h-.2l-.1.2h-.1l-.2.1-.1.1-.2.1v.1l-.2.1-.2.1h-.1l-.1.2H80l-.1.2h-.1l-.2.2h-.1l-.1.2h-.2v.2H79l-.1.2h-.2l-.1.2-.1.1-.2.1v.1l-.2.1-.1.1-.2.1v.2h-.2l-.1.2h-.2v.2l-.2.1-.1.1-.1.2h-.2v.2l-.2.1-.1.1-.1.2h-.1l-.2.2v.1l-.2.1-.1.2-.1.1-.1.1-.1.2h-.1l-.2.2v.1l-.2.2v.1l-.2.1-.1.2-.1.1-.1.1-.1.2-.1.1-.1.1-.1.2-.1.1-.1.1-.1.2-.1.1-.1.2-.1.1-.1.1-.1.2-.1.1-.1.2-.1.1-.1.2v.1l-.2.2v.1l-.2.1v.2l-.1.1-.1.2-.1.1-.1.2v.1l-.2.2v.1l-.1.2-.1.1-.1.2v.1l-.2.2v.2l-.1.1-.1.2v.1l-.2.2v.1l-.1.2v.1l-.2.2v.2l-.1.1v.2l-.1.1-.1.2v.2l-.1.1-.1.2v.1l-.1.2-.1.2v.1l-.1.2v.1l-.1.2-.1.2v.1l-.1.2v.2l-.1.1v.2l-.1.2v.1l-.1.2v.2l-.1.1v.2l-.1.2v.1l-.1.2v.2l-.1.1v.2l-.1.2V36l-.1.2v.2l-.1.1v.4l-.1.2v.2l-.1.3v.4l-.1.3v.2l-.1.2v.5l-.1.2v.5l-.1.3v.7l-.1.2V42h-.1v2l-.1.1V47.5l.1.2V48.6l.1.2v.7h.1v.6l.1.2v.4l.1.1v.4l.1.1V51.6l.1.2v.4l.1.2v.2l.1.1v.4l.1.2v.2l.1.1V54h.1V54.3l.1.1v.2h.1v.1l.1.1.2.1.1.2.2.1.1.2.1.1.1.2v.2l.1.2v1.2l-.1.2-.1.1-.2.2v.2h-.2l-.2.2-.2.1-.2.1h-.2l-.2.1h-1.1v-.1H67v-.1h-.2V58h-.2V58h-.1l-.1-.1-.1-.2h-.2v-.1l-.1-.1v-.1H66v-.1l-.1-.1-.1-.1V57l-.1-.1v-.1h-.1v-.2h-.1v-.2l-.1-.1v-.1l-.1-.2v-.2h-.1v-.2H65v-.2l-.1-.2V55l-.1-.1V54.5h-.1v-.2l-.1-.3V53.7l-.1-.2v-.1l-.1-.3v-.4h-.1v-.5l-.1-.1v-.4l-.1-.1v-.4L64 51V50.6l-.1-.2V50l-.1-.2v-.6l-.1-.2v-.8l-.1-.2V45.9l-.1-.2V42.1l.1-.2v-1l.1-.3V40l.1-.2V39l.1-.2v-.3l.1-.2v-.5l.1-.3v-.3l.1-.2v-.3l.1-.2v-.3l.1-.2v-.4l.1-.2v-.2l.1-.2v-.2l.1-.2v-.2l.1-.2v-.2l.1-.1v-.2l.1-.2v-.2l.1-.2V33l.1-.2v-.2l.2-.1V32l.1-.2.1-.2v-.2l.1-.2.1-.2V31l.1-.2.1-.2v-.2l.1-.2.1-.2V30l.2-.2v-.2l.1-.2v-.2l.2-.1v-.2l.1-.2.1-.2v-.1l.2-.2v-.2l.1-.2.1-.2.1-.1.1-.2V27l.2-.1v-.2l.2-.2v-.2l.1-.1.1-.2.1-.2.1-.1.1-.2.1-.2.1-.2.1-.1.1-.2.1-.2.1-.1.1-.2.1-.1.1-.2.2-.2v-.1l.2-.2v-.2l.2-.1V23l.2-.1.1-.2.1-.2.1-.1.2-.2v-.1l.2-.2.1-.1.1-.2.1-.1.2-.2v-.1l.2-.2.1-.1.1-.2.2-.1.1-.2.1-.1.1-.2.2-.1.1-.2.1-.1.2-.1v-.2l.2-.1.2-.2V19l.2-.1.2-.2v-.1l.2-.2h.2v-.2l.2-.2h.2l.1-.2.1-.2h.2l.1-.2.2-.1.1-.2h.2l.1-.2.2-.1.1-.2h.1l.2-.2.1-.1.2-.2h.1l.2-.2.1-.1.2-.1.1-.1.2-.1.1-.2h.2l.2-.2h.1l.2-.2.1-.1.2-.1.1-.1.2-.1.2-.1.1-.1.2-.1.1-.1.2-.1.2-.1.1-.1.2-.1.2-.1.1-.1h.2l.2-.2h.1l.2-.2h.2l.1-.1.2-.1.2-.1h.1l.2-.2h.2l.2-.1.1-.1h.2l.2-.2h.2l.1-.1h.2l.2-.1.2-.1h.1l.2-.1.2-.1h.2l.2-.1h.1l.2-.2h.4l.2-.1h.2l.1-.1h.2l.2-.1h.2l.2-.1h.2l.2-.1h.1l.2-.1h.4l.2-.1h.4l.2-.1H89l.2-.1H89.8l.2-.1h.8l.2-.1H93zM68.3 54.4h-.1z"/>
  <path id="ear-left" fill="#1c1c17" d="M29 34.3h1.4l.2.1h.7l.1.1h.5l.2.1h.2l.2.1H32.9l.2.1h.1l.1.1h.2l.2.1h.2l.2.1.2.1h.1l.1.1h.2l.2.1h.1l.1.1h.1l.2.1.2.1.1.1h.1l.1.1h.1l.1.1h.1l.2.1v.1h.2v.1l.2.1.2.1.2.2h.2v.2h.2v.1h.2v.1l.2.1.2.2.1.1h.1l.1.2h.1l.1.1v.1h.2v.2h.2v.1l.1.1h.1v.2h.2v.1l.1.1.1.1.1.1.2.2.1.2.2.1v.1l.1.1v.1l.2.1.1.2.1.2h.1v.2h.2v.2l.2.1v.2l.1.1.1.1v.1l.1.1.1.1v.1l.1.1v.1l.1.1.1.1v.1l.1.1v.1l.1.1v.1l.1.1.1.1v.1l.1.1v.2h.1v.2h.1v.2h.1v.2h.1v.2l.1.1v.1l.1.1v.1l.1.1v.1l.1.1v.2l.1.2.1.2v.1l.1.1v.2l.1.1v.1l.1.2v.2h.1v.2l.1.1v.2l.1.1v.2l.1.2v.2l.1.1v.2l.1.2v.2l.2.2v.5l.1.2v.2l.1.2.1.3v.2l.1.2v.2l.1.3v.2l.1.2v.5l.1.2v.2l.1.3v.4l.1.2v.3l.1.2v.4l.1.2v.7l.1.2v.5l.1.2v.8l.1.2v.7l.1.2v.8l-.2.2v.2l-.2.1v.2l-.2.1-.2.2H45l-.1.2h-.2l-.2.1h-1.2l-.2-.1-.2-.1-.1-.2-.2-.1-.1-.1-.1-.2-.2-.2v-.2L42 58v-.4l-.1-.2v-.7l-.1-.2v-.7l-.1-.2V55l-.1-.2V54.2l-.1-.2v-.4l-.1-.2V53l-.1-.2v-.3l-.1-.2V52l-.1-.2v-.2l-.1-.2v-.2l-.1-.2v-.4l-.1-.2V50l-.1-.2v-.2l-.1-.2-.1-.2V49l-.1-.2v-.2l-.1-.1V48.3l-.1-.1V48l-.1-.1v-.2l-.1-.1v-.1l-.1-.2V47h-.1v-.2l-.1-.2-.1-.1v-.2l-.1-.1V46l-.1-.1-.1-.2v-.2h-.1v-.1l-.1-.1v-.2H39V45H39v-.1l-.1-.1v-.2h-.1v-.2h-.1v-.1l-.1-.1V44h-.1v-.2h-.1v-.1l-.1-.1-.1-.2v-.1l-.1-.1-.1-.1-.1-.1V43h-.1v-.1l-.1-.1v-.1h-.1v-.1l-.1-.1-.1-.2h-.1V42h-.1L37 42l-.1-.1v-.1h-.1v-.1h-.2v-.2h-.1v-.1l-.2-.1v-.1h-.1l-.1-.1V41H36v-.1H36l-.1-.1-.1-.1-.1-.1-.1-.1h-.1v-.1h-.1l-.1-.1-.1-.1H35V40h-.2V40h-.1v-.1h-.1l-.1-.1h-.2v-.1h-.1v-.1H34l-.1-.1-.2-.1h-.1l-.1-.1-.2-.1h-.1l-.1-.1H33l-.2-.1h-.2l-.1-.1h-.1l-.2-.1H32l-.1-.1H31.7l-.1-.1h-.4l-.2-.1h-.5l-.1-.1H26.3l-.1.1h-.7v.1H25l-.2.1h-.4l-.2.1H24l-.2.1h-.3l-.2.1H23.1l-.2.1h-.2l-.2.1h-.1l-.2.1H22l-.2.1h-.1l-.2.1h-.2l-.2.1H21l-.2.1h-.2l-.2.1h-.2l-.1.1-.2.1h-.2l-.2.1h-.1l-.2.1-.2.1h-.2l-.3.2-.4.1-.4.2h-.3l-.4.2-.7.3-.4.1-.3.1-.4.2-.4.1h-.2l-.2.1h-.1l-.2.2h-.4l-.2.1-.2.1h-.2l-.2.1h-.2l-.2.2H12.2l-.2.1h-.2l-.3.2H11l-.2.1h-.1l-.2.1h-.2l-.1.1H10l-.1.1h-.4l-.1.1h-.5v.1H8l-.2.1H6.2v-.1h-.4l-.1-.1h-.2l-.1-.1H5v-.1H4.7V43h-.1l-.1-.1-.2-.1-.1-.1h-.1v-.1H4v-.1h-.1v-.1h-.1l-.1-.1v-.1h-.1l-.1-.1-.1-.2h-.1v-.2h-.1v-.1H3v-.1l-.1-.1-.1-.2-.1-.1V41l-.1-.1v-.2h-.1V40.5h-.1V40.2l-.1-.1v-.4l-.1-.1V37l.1-.1V36.7l.1-.2V36.2l.1-.1v-.2l.1-.1V35.5l.1-.1v-.2L3 35V35l.1-.2v-.2l.1-.1v-.1l.1-.1v-.1l.1-.2v-.2h.1v-.2l.1-.1v-.1l.1-.1v-.1l.1-.2.1-.2.1-.2v-.1l.1-.1v-.1l.1-.1.1-.1V32l.1-.2.1-.2.1-.2.2-.2V31l.1-.1v-.1l.2-.1v-.2l.1-.1.1-.1v-.1l.1-.1V30l.2-.1v-.2l.2-.1v-.2l.2-.1V29l.2-.1v-.1l.1-.1v-.1l.1-.1.1-.1v-.1l.2-.1V28l.2-.1.1-.2.2-.2.1-.2.2-.1v-.1l.1-.1V27l.2-.1v-.1l.1-.1H8v-.2h.2v-.2h.1v-.1l.2-.1V26l.1-.1h.1v-.2h.2v-.1l.1-.1.1-.1.1-.1.2-.2.1-.1.1-.1.1-.1v-.1h.2v-.2h.1l.1-.1.1-.1.2-.2.1-.1.1-.1h.1l.1-.2.2-.1v-.1h.2v-.2l.2-.1.2-.2.2-.1.1-.1.1-.1.2-.1v-.1l.2-.1.2-.1V22h.2l.1-.2h.2l.1-.2h.2v-.2h.2l.2-.2h.1l.1-.2h.2l.1-.2h.2v-.2h.2l.2-.2h.1l.2-.2h.1l.2-.2.2-.1.2-.1.1-.1.2-.1.1-.1.2-.1h.1l.2-.2h.1l.2-.2h.1l.2-.1.1-.1h.2l.1-.2h.2l.1-.1.2-.1h.2l.1-.2h.2l.1-.1h.2l.1-.2h.2l.2-.1h.1l.2-.1.2-.1h.1l.2-.1.1-.1h.2l.2-.1.1-.1H21.2l.1-.1h.1l.1-.1h.2l.1-.1h.2l.1-.1H22.4l.1-.1h.2l.2-.1h.2l.2-.1h.2v-.1h.4v-.1h.5l.1-.1H24.8l.1-.1h.5l.1-.1h.5l.1-.1h.6l.2-.1h1v-.1H32.5l.2.1H33.2l.2.1h.4l.1.1h.4l.2.1h.4l.2.1h.2l.2.1h.1l.2.1h.2l.2.1h.2l.2.1h.2l.1.1h.2l.2.1.2.1h.2l.1.1h.2l.2.2h.4l.1.2h.4l.2.2h.1l.2.1h.2l.2.2h.1l.2.1.2.1h.1l.2.2h.2l.2.1.1.1.2.1.2.1.1.1h.2l.2.2h.1l.2.2h.2l.1.2h.2l.1.2h.2l.2.2h.1l.2.2h.1l.2.2h.2l.1.2.2.1.1.1.2.1.1.1.2.2h.1l.2.2.1.1.2.1.1.1.2.2h.1l.2.2.1.1.2.1.1.2.2.1.1.1.1.2h.2l.1.2.2.1.1.2.2.1v.1l.2.2.2.1.1.1.1.2.2.1.1.1.1.2.2.1.1.2.1.1.2.1v.2l.2.1.1.2.2.1.1.2.1.1.2.2v.1l.2.2.1.1.1.2.2.1v.2l.2.1.1.2.1.1.1.2.2.1v.2l.2.1.1.2.1.2.1.1.1.2.1.1.2.2v.2l.2.1v.2l.2.1v.2l.2.2v.1l.2.2v.2l.2.1v.2l.2.2v.1l.2.2v.2l.2.2v.1l.2.2v.2l.1.1.1.2.1.2.1.2v.1l.2.2v.2l.1.2.1.1.1.2.1.2v.2l.2.2v.1l.1.2v.2l.2.2v.2l.1.1v.2l.2.2v.4l.2.2V36.8l.2.2v.4l.1.2.1.2v.1l.1.2v.2l.1.2.1.2v.2l.1.2v.2l.1.2v.1l.1.2v.2l.1.2v.2l.1.2v.4l.1.2v.2l.1.2v.2l.1.3v.2l.1.3v.2l.1.3v.5l.1.3v.2l.1.3v.5l.1.3v.7l.1.3V47l.1.1V48.7l.1.1V53.5l-.1.1v1h-.1v.8h-.1v.6l-.1.1V56.7l-.1.1V57.1l-.1.2v.4l-.1.1V58.1l-.1.1v.4l-.1.3V59.2l-.1.2v.1l-.1.2v.2l-.1.2v.2l-.1.2v.2l-.1.1v.2l-.1.1v.2l-.1.1v.1l-.1.1v.1l-.1.2v.1h-.1v.2h-.1v.1l-.1.1v.1l-.1.1v.1h-.1v.1h-.1v.1l-.1.1-.1.1-.1.1-.1.1-.2.1-.1.1h-.1l-.1.1h-.1l-.1.1h-.1l-.1.1H54.8v.1h-1l-.2-.1-.2-.1-.2-.1-.1-.1-.2-.2-.1-.1-.1-.2-.1-.1-.1-.2v-.2l-.1-.2v-1l.1-.2.1-.2.1-.2.1-.1.2-.2h.1l.2-.2h.1V59.8h.1v-.4h.1V59.2h.1v-.4l.1-.2v-.2l.1-.2v-.4l.1-.1v-.2l.1-.1V57l.1-.1v-.5h.1v-.5l.1-.1v-.5l.1-.1v-.7l.1-.1V53.5h.1V52l.1-.1V47.4h-.1v-1l-.1-.3v-.5l-.1-.2V45l-.1-.2v-.5l-.1-.2v-.5l-.1-.2V43l-.1-.3v-.2l-.1-.2V42l-.1-.2V41.5l-.1-.2v-.1l-.1-.2v-.2l-.1-.1v-.2l-.1-.2V40l-.1-.2v-.1l-.1-.2v-.2l-.1-.1-.1-.2v-.2l-.1-.1v-.2l-.1-.2v-.1l-.1-.2v-.2l-.2-.1V37.4l-.1-.2-.1-.2V37l-.1-.2-.1-.2v-.1l-.1-.2-.1-.1v-.2l-.2-.2v-.1l-.1-.2v-.1l-.1-.2-.1-.1-.1-.2v-.1l-.2-.2v-.2l-.1-.1V34l-.2-.1v-.2l-.1-.1-.1-.2-.1-.1V33l-.2-.1v-.2l-.1-.1-.1-.2-.1-.1-.1-.2-.1-.1-.1-.2v-.1l-.2-.1v-.2l-.2-.1v-.2l-.2-.1v-.2l-.2-.1v-.1l-.2-.2v-.1l-.2-.2v-.1l-.2-.1v-.2l-.2-.1v-.1l-.2-.2v-.1l-.2-.1V29l-.2-.1-.1-.1-.1-.2-.1-.1-.1-.1-.1-.2h-.2V28l-.2-.1v-.2h-.2l-.1-.2-.1-.1-.2-.2-.2-.2-.1-.1-.1-.1-.1-.2h-.2v-.2l-.2-.1-.1-.1-.1-.1-.2-.1v-.2h-.2l-.1-.2h-.2v-.2l-.2-.1-.1-.1-.2-.1-.1-.1-.1-.1-.2-.1v-.1l-.2-.1-.1-.1-.2-.1-.1-.1-.1-.1-.2-.1-.1-.1-.1-.1-.2-.1-.1-.1-.1-.1h-.2l-.1-.2h-.2v-.2h-.2L41 23 41 23l-.1-.1h-.2l-.1-.2h-.2l-.1-.1-.2-.1-.2-.2h-.2l-.1-.1h-.2l-.1-.2H39l-.1-.1h-.1l-.2-.2H38.3l-.1-.2H37.9l-.2-.1-.1-.1h-.2l-.1-.1H37L37 21h-.2l-.1-.1-.2-.1h-.1l-.2-.1h-.1l-.2-.1h-.1l-.2-.1H35.3l-.2-.1H35l-.2-.1H34.5l-.1-.1h-.2l-.2-.1H33.7l-.1-.1H33l-.2-.1h-.4l-.2-.1H31.5l-.2-.1H27.2v.1H26.4l-.1.1H26l-.1.1h-.5v.1H25l-.1.1h-.4v.1H24.2v.1h-.4l-.1.1h-.2l-.1.1h-.2l-.2.1h-.1l-.1.1H22.5v.1h-.2l-.1.1H22l-.1.1h-.2v.1h-.2l-.2.1v.1H21l-.2.1h-.1l-.1.1-.2.1h-.1l-.1.1H20l-.1.2H19.7v.2h-.2l-.2.1-.2.1-.1.1-.2.1h-.1l-.1.1-.2.1v.1h-.2l-.2.2-.2.1-.1.1h-.2v.2h-.2l-.1.1-.2.1v.1l-.2.1h-.1l-.2.2-.2.2h-.1l-.2.1v.1l-.2.1-.1.1-.1.1h-.2v.2h-.2l-.1.2H15l-.2.2-.2.2h-.1l-.1.2h-.2l-.1.2-.2.1-.1.2h-.1l-.2.2-.1.1-.2.1v.1H13v.1l-.2.1-.1.2-.2.1-.1.2-.2.1-.1.1v.1l-.2.1-.1.1v.1l-.1.1h-.1v.1l-.2.1v.1l-.2.2-.1.1-.1.2H11v.1l-.1.1h-.1v.2h-.1l-.1.1v.1h-.1l-.1.2-.1.1-.1.1-.1.2-.2.1v.1l-.1.2h-.1v.1l-.1.1v.1h-.1l-.1.2-.1.1v.1l-.1.1v.1H9v.2l-.1.1v.1l-.1.1v.1h-.1v.2h-.1l-.1.2-.1.1v.1l-.1.1-.1.2-.1.2-.1.1v.1l-.1.1v.1l-.1.2-.1.2-.1.1v.1l-.1.1v.2l-.1.1-.1.2-.1.2v.2H7v.2l-.1.1v.1l-.1.1v.2h-.1v.2l-.1.2v.2h-.1v.4h-.1V37.3l-.1.1v.5h-.1V39.4h.2v.1H7v.1H8.6v-.1H9l.1-.1H9.4v-.1h.4l.2-.1h.1l.2-.1h.1l.3-.2h.4l.2-.1h.2l.1-.1h.2l.2-.1h.2l.1-.2h.4l.2-.1h.2l.1-.2h.4l.4-.2.3-.1.4-.2h.3l.8-.4h.3l.4-.2.4-.1.3-.2.4-.1h.2l.2-.1.2-.1h.2l.1-.1h.2l.2-.2h.4l.2-.1.2-.1h.2l.2-.1h.2l.2-.1h.2l.2-.1.1-.1h.2l.2-.1h.2l.2-.1h.2l.2-.1h.2l.2-.1h.3l.2-.1h.2l.3-.1h.5v-.1h.4l.2-.1h.4l.2-.1h.5l.2-.1H26.8v-.1H29zM54.2 60z"/>
</svg>
