<svg xmlns="http://www.w3.org/2000/svg" fill-rule="evenodd" stroke-linecap="round" stroke-linejoin="round" stroke-miterlimit="1.5" clip-rule="evenodd" viewBox="0 0 256 128">
  <defs/>
  <g id="bar">
    <path fill="#1c1c17" stroke="#1c1c17" stroke-width=".9" d="M71 54.5L60 75.5H52v-21h19zM91.6 75.5H76.8l11.2-21h14.7l-11 21zM124.4 75.5h-15.9l11.2-21h15.8l-11.1 21zM159.4 75.5h-18.1l11.1-21h18.1l-11 21zM193.6 75.5h-17.3l11.2-21h17.2l-11 21z" transform="matrix(1.21258 0 0 1 -29.8 2)"/>
    <path fill="#fef94d" d="M81.5 71L64.2 82.1v-25l17.3-11v25z" transform="rotate(32.7 61.5 43.4)"/>
    <path fill="#fef94d" d="M81.5 68.1l-17.3 11V54.3l17.3-11V68zM64.2 54.2v25-25zM81.5 43.1v25-25z" transform="rotate(32.7 95.6 175.2)"/>
    <path fill="#fef94d" d="M81.5 66.1L64.2 77.2v-25l17.3-11v25zM64.2 52.2v25-25z" transform="rotate(32.7 113.4 246.7)"/>
    <path fill="#fef94d" d="M64.2 50.4l1.4-1L77 67.1l-12.8 8.2v-25z" transform="rotate(32.7 131 316.5)"/>
    <path fill="#fef94d" d="M81.5 69.9l-17.3 11V56l17.3-11v24.9z" transform="rotate(32.7 78.8 108.4)"/>
  </g>
  <g id="under">
    <text x="18.6" y="47.2" font-family="'TimesNewRomanPSMT','Times New Roman',serif" font-size="46.9" transform="matrix(.86947 0 0 1 -5.4 -5.6)">
      UNDER
    </text>
    <text x="18.6" y="47.2" fill-opacity=".3" font-family="'TimesNewRomanPSMT','Times New Roman',serif" font-size="46.9" transform="matrix(.86947 0 0 1 4.1 -.3)">
      UNDER
    </text>
  </g>
  <g id="construction" font-family="'TimesNewRomanPSMT','Times New Roman',serif" font-size="31">
    <text x="82.5" y="116.6" transform="matrix(.84936 0 0 1 -28.3 -7.7)">
      CONST
    </text>
    <text x="184.2" y="116.6" transform="matrix(.84936 0 0 1 -28.3 -7.7)">
      R<tspan x="203.3" y="116.6">U</tspan>
    </text>
    <text x="224.1" y="116.6" transform="matrix(.84936 0 0 1 -28.3 -7.7)">
      CTION
    </text>
    <g fill-opacity=".5">
      <text x="82.5" y="116.6" transform="matrix(.84936 0 0 1 -22 -.1)">
        CONST
      </text>
      <text x="184.2" y="116.6" transform="matrix(.84936 0 0 1 -22 -.1)">
        R<tspan x="203.3" y="116.6">U</tspan>
      </text>
      <text x="224.1" y="116.6" transform="matrix(.84936 0 0 1 -22 -.1)">
        CTION
      </text>
    </g>
  </g>
</svg>
